<?xml version="1.0" encoding="UTF-8"?>
<svg width="174px" height="58px" viewBox="0 0 174 58" version="1.1" xmlns="http://www.w3.org/2000/svg" xmlns:xlink="http://www.w3.org/1999/xlink">
    <!-- Generator: Sketch 52.2 (67145) - http://www.bohemiancoding.com/sketch -->
    <title>Logo</title>
    <desc>Created with Sketch.</desc>
    <g id="Webdesign" stroke="none" stroke-width="1" fill="none" fill-rule="evenodd">
        <g id="Dashboard-User" transform="translate(-36.000000, -29.000000)">
            <g id="top-menu">
                <g id="Logo" transform="translate(36.865546, 29.245614)">
                    <g id="Group" transform="translate(27.310924, 3.026316)">
                        <path d="M0.176419452,0 L5.28317453,0.171121521 C7.52253664,0.171121521 9.50939184,0.612990897 11.2437998,1.4967429 C12.9782077,2.38049491 14.328391,3.66883695 15.2943904,5.36180766 C16.2603897,7.05477837 16.7433821,9.05117616 16.7433821,11.3510609 C16.7433821,13.6509456 16.2603897,15.6473434 15.2943904,17.3403141 C14.328391,19.0332848 12.9782077,20.3216269 11.2437998,21.2053789 C9.50939184,22.0891309 7.52253664,22.5310003 5.28317453,22.5310003 L0.176419452,22.5310003 L0.176419452,0 Z M5.57720695,19.7839295 C8.14588701,19.7839295 10.1272537,19.0226364 11.5213664,17.5000276 C12.915479,15.9774187 13.6125249,13.9277836 13.6125249,11.3510609 C13.6125249,8.77433818 12.915479,6.72470312 11.5213664,5.20209424 C10.1272537,3.67948536 8.14588701,2.91819234 5.57720695,2.91819234 L0.176419452,2.91819234 L0.176419452,19.7839295 L5.57720695,19.7839295 Z M22.9351701,0.171121521 L30.4106503,0.171121521 C32.9134668,0.171121521 34.8673907,0.7301129 36.2724806,1.84811243 C37.6775706,2.96611196 38.380105,4.67502846 38.380105,6.9749132 C38.380105,9.95624527 37.0408988,12.0537939 34.362446,13.2676219 L39.5327121,22.5310003 L35.7126429,22.5310003 L31.0363513,13.8106476 L26.2283332,13.8106476 L26.2283332,22.5310003 L22.9351701,22.5310003 L22.9351701,0.171121521 Z M30.3777187,11.0955194 C31.9145358,11.0955194 33.0890856,10.733506 33.9014032,10.0094682 C34.7137208,9.28543038 35.1198736,8.27392217 35.1198736,6.9749132 C35.1198736,5.67590422 34.7192094,4.66971974 33.917869,3.95632957 C33.1165287,3.24293939 31.9364904,2.88624966 30.3777187,2.88624966 L26.2283332,2.88624966 L26.2283332,11.0955194 L30.3777187,11.0955194 Z M43.7509544,19.1450758 L47.3075706,19.1450758 L47.3075706,22.5310003 L43.7509544,22.5310003 L43.7509544,19.1450758 Z M74.4492217,10.3608377 C75.8982207,10.7015614 77.0069079,11.3563798 77.7753164,12.3253128 C78.543725,13.2942457 78.9279235,14.5666165 78.9279235,16.1424635 C78.9279235,18.1229198 78.274786,19.6827719 76.9684915,20.8220667 C75.6621969,21.9613614 73.867441,22.5310003 71.5841698,22.5310003 L62.8902192,22.5310003 L62.8902192,0.171121521 L70.1681097,0.171121521 C72.2757446,0.171121521 73.905844,0.628962079 75.0584569,1.54465693 C76.2110697,2.46035178 76.7873675,3.823226 76.7873675,5.63332047 C76.7873675,6.69808193 76.5897797,7.64570541 76.1945981,8.47621934 C75.7994166,9.30673328 75.2176303,9.93493311 74.4492217,10.3608377 Z M66.0187241,9.46644255 L69.7729301,9.46644255 C71.0023838,9.46644255 71.9409259,9.22687481 72.5885845,8.74773216 C73.2362432,8.2685895 73.5600677,7.41146939 73.5600677,6.1763461 C73.5600677,4.94122281 73.2362432,4.0841027 72.5885845,3.60496004 C71.9409259,3.12581739 71.0023838,2.88624966 69.7729301,2.88624966 L66.0187241,2.88624966 L66.0187241,9.46644255 Z M71.3207167,19.7839295 C72.616034,19.7839295 73.6369044,19.4698295 74.3833584,18.8416203 C75.1298125,18.213411 75.5030339,17.2817587 75.5030339,16.0466354 C75.5030339,13.4912079 74.1089421,12.2135134 71.3207167,12.2135134 L66.0187241,12.2135134 L66.0187241,19.7839295 L71.3207167,19.7839295 Z M84.4963627,0.171121521 L98.5581692,0.171121521 L98.5581692,2.91819234 L87.6248677,2.91819234 L87.6248677,9.46644255 L96.3188183,9.46644255 L96.3188183,12.2135134 L87.6248677,12.2135134 L87.6248677,19.7839295 L98.8545539,19.7839295 L98.8545539,22.5310003 L84.4963627,22.5310003 L84.4963627,0.171121521 Z M116.607697,16.493833 L107.782019,16.493833 L105.5756,22.5310003 L102.282437,22.5310003 L110.548276,0.171121521 L113.84144,0.171121521 L122.107279,22.5310003 L118.814116,22.5310003 L116.607697,16.493833 Z M115.619748,13.7467622 L112.194858,4.41949848 L108.769968,13.7467622 L115.619748,13.7467622 Z M126.918291,0.171121521 L130.310249,0.171121521 L141.671661,16.9090879 L141.671661,0.171121521 L144.833098,0.171121521 L144.833098,22.5310003 L142.165636,22.5310003 L130.046796,4.86669606 L130.046796,22.5310003 L126.918291,22.5310003 L126.918291,0.171121521 Z" id="DR.-BEAN" fill-opacity="0.9" fill="#2B2F30"></path>
                        <path d="M0.176419452,31.5434004 L11.109721,31.5434004 L11.109721,34.2904712 L0.176419452,34.2904712 L0.176419452,40.8387214 L8.87037005,40.8387214 L8.87037005,43.5857922 L0.176419452,43.5857922 L0.176419452,51.1562083 L11.4061056,51.1562083 L11.4061056,53.9032791 L0.176419452,53.9032791 L0.176419452,31.5434004 Z M17.2379979,31.5434004 L20.6299559,31.5434004 L31.9913686,48.2813668 L31.9913686,31.5434004 L35.1528052,31.5434004 L35.1528052,53.9032791 L32.4853431,53.9032791 L20.3665028,36.2389749 L20.3665028,53.9032791 L17.2379979,53.9032791 L17.2379979,31.5434004 Z M52.3131785,54.3504767 C50.1835891,54.3504767 48.2625965,53.8713412 46.5501431,52.9130559 C44.8376897,51.9547706 43.4875063,50.5918964 42.4995525,48.8243924 C41.5115986,47.0568884 41.0176291,45.0125771 41.0176291,42.6913971 C41.0176291,40.3702171 41.5280642,38.3365532 42.5489499,36.5903444 C43.5698356,34.8441357 44.980393,33.4919089 46.7806645,32.5336236 C48.580936,31.5753383 50.6336538,31.0962028 52.9388795,31.0962028 C54.1024696,31.0962028 55.2495766,31.2133248 56.380235,31.4475723 C57.5108933,31.6818199 58.5262751,31.990596 59.4264108,32.3739102 L59.1300262,35.0251529 C57.0004367,34.2372295 54.9696731,33.8432736 53.0376744,33.8432736 C51.1276303,33.8432736 49.5304621,34.2319057 48.2461221,35.0091816 C46.9617821,35.7864575 46.0067743,36.8405555 45.3810702,38.1715073 C44.7553661,39.5024591 44.4425187,41.0197214 44.4425187,42.7233398 C44.4425187,45.4065386 45.183473,47.5573245 46.6654038,49.1757619 C48.1473346,50.7941993 50.3262891,51.6034059 53.2023326,51.6034059 C53.8170594,51.6034059 54.4756855,51.5554924 55.1782304,51.4596638 C55.8807754,51.3638353 56.5064701,51.2094472 57.0553334,50.9964949 L57.0553334,45.4384679 L53.432854,45.4384679 L53.432854,42.6913971 L60.1838384,42.6913971 L60.1838384,52.6575145 C59.217839,53.1686 58.0597549,53.578527 56.7095513,53.8873078 C55.3593476,54.1960886 53.8939047,54.3504767 52.3131785,54.3504767 Z M66.4438418,31.5434004 L69.5723467,31.5434004 L69.5723467,51.1562083 L80.1434003,51.1562083 L80.1434003,53.9032791 L66.4438418,53.9032791 L66.4438418,31.5434004 Z M84.8885487,31.5434004 L88.0170537,31.5434004 L88.0170537,53.9032791 L84.8885487,53.9032791 L84.8885487,31.5434004 Z M101.818401,54.3504767 C100.45722,54.3504767 99.0741051,54.2067361 97.6690151,53.9192505 C96.2639252,53.6317649 95.1332838,53.2963701 94.2770571,52.9130559 L94.7051683,49.6868449 C95.8028949,50.1979304 97.0433072,50.6451235 98.4264427,51.0284376 C99.8095781,51.4117517 101.181716,51.6034059 102.542897,51.6034059 C104.079714,51.6034059 105.270729,51.3318958 106.115979,50.7888675 C106.961228,50.2458391 107.383846,49.4313088 107.383846,48.3452521 C107.383846,47.5360334 107.169793,46.85992 106.74168,46.3168917 C106.313566,45.7738634 105.687871,45.3160228 104.864577,44.9433563 C104.041282,44.5706898 102.894175,44.1714102 101.423221,43.7455056 C99.930313,43.3196011 98.6899006,42.8617605 97.7019468,42.3719702 C96.7139929,41.88218 95.9181531,41.2113903 95.3144035,40.3595812 C94.7106539,39.507772 94.4087837,38.432379 94.4087837,37.1333701 C94.4087837,35.3232756 95.1277838,33.8645743 96.5658055,32.7572224 C98.0038272,31.6498705 100.029102,31.0962028 102.641691,31.0962028 C104.046781,31.0962028 105.380499,31.2452672 106.642885,31.5434004 C107.90527,31.8415336 109.008469,32.2035471 109.952514,32.6294516 L109.623197,35.8556627 C108.393744,35.1529202 107.208217,34.6418423 106.066581,34.3224139 C104.924945,34.0029855 103.739419,33.8432736 102.509965,33.8432736 C101.08292,33.8432736 99.9467905,34.0988125 99.1015411,34.609898 C98.2562917,35.1209835 97.8336733,35.9088952 97.8336733,36.9736567 C97.8336733,37.6976944 98.0257726,38.2939519 98.4099768,38.762447 C98.7941811,39.230942 99.3485247,39.6302216 100.073024,39.9602976 C100.797524,40.2903737 101.807417,40.6470634 103.102734,41.0303775 C105.693369,41.7970058 107.625339,42.7073632 108.898701,43.761477 C110.172064,44.8155908 110.808736,46.2689684 110.808736,48.1216533 C110.808736,50.0808144 110.051316,51.6087242 108.536453,52.7054285 C107.021591,53.8021328 104.782262,54.3504767 101.818401,54.3504767 Z M116.410107,31.5434004 L119.538612,31.5434004 L119.538612,40.774836 L131.262272,40.774836 L131.262272,31.5434004 L134.390777,31.5434004 L134.390777,53.9032791 L131.262272,53.9032791 L131.262272,43.6496776 L119.538612,43.6496776 L119.538612,53.9032791 L116.410107,53.9032791 L116.410107,31.5434004 Z" id="ENGLISH" fill="#9EE2D0"></path>
                    </g>
                    <g id="books" fill="#9EE2D0">
                        <g id="book" transform="translate(9.586722, 0.000000)">
                            <path d="M11.00978,15.3008137 L5.16781401,15.3008137 C4.63039878,15.3008137 4.19419105,15.729245 4.19419105,16.2570795 L4.19419105,29.6453616 C4.19419105,30.1731961 4.63039878,30.6016274 5.16781401,30.6016274 L11.00978,30.6016274 C11.5471953,30.6016274 11.983403,30.1731961 11.983403,29.6453616 L11.983403,16.2571916 C11.983403,15.729245 11.5471953,15.3008137 11.00978,15.3008137 Z M10.0361571,28.6890958 L6.14155108,28.6890958 L6.14155108,17.2134575 L10.0361571,17.2134575 L10.0361571,28.6890958 Z" id="Shape" fill-rule="nonzero"></path>
                            <path d="M11.00978,46.1911357 L5.16781401,46.1911357 C4.63039878,46.1911357 4.19419105,46.6438344 4.19419105,47.2015668 C4.19419105,47.7592992 4.63039878,48.2119979 5.16781401,48.2119979 L11.00978,48.2119979 C11.5471953,48.2119979 11.983403,47.7592992 11.983403,47.2015668 C11.983403,46.6438344 11.5471953,46.1911357 11.00978,46.1911357 Z" id="Path"></path>
                            <path d="M11.00978,49.9441655 L5.16781401,49.9441655 C4.63039878,49.9441655 4.19419105,50.3968642 4.19419105,50.9545966 C4.19419105,51.512329 4.63039878,51.9650277 5.16781401,51.9650277 L11.00978,51.9650277 C11.5471953,51.9650277 11.983403,51.512329 11.983403,50.9545966 C11.983403,50.3968642 11.5471953,49.9441655 11.00978,49.9441655 Z" id="Path"></path>
                            <path d="M15.878009,55.8143642 L15.878009,5.77389197 L15.878009,2.88694598 C15.878009,1.26833912 14.570047,0 12.900875,0 L2.97713395,0 C1.33575627,0 2.75439791e-15,1.29529147 2.75439791e-15,2.88694598 L2.75439791e-15,11.5477839 L0,13.4723394 L0,55.8142514 L0,57.7389197 L15.878009,57.7389197 L15.878009,55.8143642 Z M13.8932142,55.8142514 L1.98467844,55.8142514 L1.98467844,7.69856021 L10.9160803,7.69856021 C11.4638264,7.69856021 11.9084195,7.26743543 11.9084195,6.73628248 C11.9084195,6.20512952 11.4638264,5.77389197 10.9160803,5.77389197 L1.98467844,5.77389197 L1.98467844,2.88694598 C1.98467844,2.34710964 2.42031686,1.92466825 2.97701765,1.92466825 L12.9007587,1.92466825 C13.4664142,1.92466825 13.8930979,2.33842625 13.8930979,2.88694598 L13.8932142,55.8142514 Z" id="Shape" fill-rule="nonzero"></path>
                        </g>
                        <g id="book-small" transform="translate(0.000000, 11.259089)">
                            <path d="M11.0846478,5.16442559 C10.1998848,5.16442559 9.56615864,5.16442559 9.18346924,5.16442559 C8.2906469,5.16442559 6.7600687,5.16442559 4.59173462,5.16442559 C4.08485413,5.16442559 3.67343075,5.55004276 3.67343075,6.02512957 C3.67343075,6.50021638 4.08485413,6.88583354 4.59173462,6.88583354 L9.18346924,6.88583354 L9.18346924,44.7583215 L2.75501925,44.7583215 C2.2489997,44.7583215 1.83671537,44.3718974 1.83671537,43.8976175 L1.83671537,2.5822128 C1.83671537,2.10793293 2.2489997,1.72150882 2.75501925,1.72150882 L6.42834238,1.72150882 C6.93522287,1.72150882 7.34664625,1.33589165 7.34664625,0.860804844 C7.34664625,0.385718036 6.93533049,0 6.42834238,0 L2.75501925,0 C1.23609965,0 0,1.15856626 0,2.5822128 L0,43.8976175 C0,45.3212641 1.23609965,46.4798303 2.75501925,46.4798303 L11.0846478,46.4798303 L11.0846478,5.16442559 Z" id="Shape" fill-rule="nonzero"></path>
                            <path d="M6.29120758,36.0868248 L4.49374979,36.0868248 C3.99767419,36.0868248 3.5950209,36.4748523 3.5950209,36.9529086 C3.5950209,37.4309649 3.99767419,37.8189924 4.49374979,37.8189924 L6.2913129,37.8189924 C6.7873885,37.8189924 7.19004179,37.4309649 7.19004179,36.9529086 C7.19004179,36.4748523 6.7873885,36.0868248 6.29120758,36.0868248 Z" id="Path"></path>
                            <path d="M6.29120758,39.55116 L4.49374979,39.55116 C3.99767419,39.55116 3.5950209,39.9391874 3.5950209,40.4172438 C3.5950209,40.8953001 3.99767419,41.2833276 4.49374979,41.2833276 L6.2913129,41.2833276 C6.7873885,41.2833276 7.19004179,40.8953001 7.19004179,40.4172438 C7.19004179,39.9391874 6.7873885,39.55116 6.29120758,39.55116 Z" id="Path"></path>
                            <path d="M6.29120758,15.5895083 L4.49374979,15.5895083 C3.99767419,15.5895083 3.5950209,15.9775358 3.5950209,16.4555921 C3.5950209,16.9336484 3.99767419,17.3216759 4.49374979,17.3216759 L6.2913129,17.3216759 C6.7873885,17.3216759 7.19004179,16.9336484 7.19004179,16.4555921 C7.19004179,15.9775358 6.7873885,15.5895083 6.29120758,15.5895083 Z" id="Path"></path>
                            <path d="M6.29120758,19.0538435 L4.49374979,19.0538435 C3.99767419,19.0538435 3.5950209,19.4418482 3.5950209,19.9198765 C3.5950209,20.3979049 3.99756887,20.7860111 4.49374979,20.7860111 L6.2913129,20.7860111 C6.7873885,20.7860111 7.19004179,20.3980064 7.19004179,19.919978 C7.19004179,19.4419497 6.7873885,19.0538435 6.29120758,19.0538435 Z" id="Path"></path>
                        </g>
                    </g>
                </g>
            </g>
        </g>
    </g>
</svg>