<?xml version="1.0" encoding="UTF-8"?>
<svg width="115px" height="113px" viewBox="0 0 115 113" version="1.1" xmlns="http://www.w3.org/2000/svg" xmlns:xlink="http://www.w3.org/1999/xlink">
    <!-- Generator: Sketch 52.2 (67145) - http://www.bohemiancoding.com/sketch -->
    <title>icon</title>
    <desc>Created with Sketch.</desc>
    <g id="Webdesign" stroke="none" stroke-width="1" fill="none" fill-rule="evenodd">
        <g id="Dashboard-User" transform="translate(-510.000000, -255.000000)">
            <g id="Dashboard" transform="translate(250.000000, 115.000000)">
                <g id="abc-card" transform="translate(114.000000, 80.000000)">
                    <g id="icon" transform="translate(146.000000, 60.000000)">
                        <path d="M75.8177816,57 L38.1822184,57 C33.1109156,57 29,52.8890844 29,47.8177816 L29,10.1822184 C29,5.11091561 33.1109156,1 38.1822184,1 L75.8177816,1 C80.8890844,1 85,5.11091561 85,10.1822184 L85,47.8177816 C85,52.8890844 80.8890844,57 75.8177816,57 Z" id="Path" fill="#FF9F9E"></path>
                        <path d="M44.9534796,47.8177816 L44.9534796,10.1822184 C44.9534796,5.11091561 49.0036426,1 54,1 L38.0465206,1 C33.0501632,1 29,5.11091561 29,10.1822184 L29,47.8177816 C29,52.8890844 33.0501632,57 38.0465206,57 L54,57 C49.0036426,57 44.9534796,52.8890844 44.9534796,47.8177816 Z" id="Path" fill="#FF9F9E"></path>
                        <path d="M43.3730925,48 C40.4054116,48 38,45.5945884 38,42.6269075 L38,14.3730925 C38,11.4054116 40.4054116,9 43.3730925,9 L71.6269075,9 C74.5945884,9 77,11.4054116 77,14.3730925 L77,42.6269075 C77,45.5945884 74.5945884,48 71.6269075,48 L43.3730925,48 Z" id="Path" fill="#FDD58B"></path>
                        <path d="M46.9841066,9.5116385 C46.9841066,9.34020413 46.989716,9.16965796 47,9 L44.655253,9 C41.5317284,9 39,11.4054116 39,14.3730925 L39,42.6269075 C39,45.5945884 41.5317284,48 44.655253,48 L47,48 C46.989716,47.830342 46.9841066,47.6597959 46.9841066,47.4883615 L46.9841066,9.5116385 Z" id="Path" fill="#FFDE55"></path>
                        <path d="M48.8177816,112 L11.1822184,112 C6.11091561,112 2,107.889084 2,102.817782 L2,65.1822181 C2,60.1109154 6.11091561,56 11.1822184,56 L48.8177816,56 C53.8890844,56 58,60.1109154 58,65.1822181 L58,102.817782 C58,107.889084 53.8890844,112 48.8177816,112 Z" id="Path" fill="#66E2DF"></path>
                        <path d="M22.0788052,79.8107394 C22.2545974,58.3257041 35.971645,56.1698943 40,56 L11.1228337,56 C6.08432887,56 2,60.1109154 2,65.1822181 L2,102.817782 C2,107.889084 6.08432887,112 11.1228337,112 L18.6119357,112 C20.0252709,106.267606 21.9484913,95.6249999 22.0788052,79.8107394 Z" id="Path" fill="#66E2DF"></path>
                        <path d="M15.3730925,104 C12.4054116,104 10,101.594588 10,98.6269076 L10,70.3730927 C10,67.4054118 12.4054116,65 15.3730925,65 L43.6269075,65 C46.5945884,65 49,67.4054118 49,70.3730927 L49,98.6269076 C49,101.594588 46.5945884,104 43.6269075,104 L15.3730925,104 Z" id="Path" fill="#FDD58B"></path>
                        <path d="M16.30583,65 C13.3752997,65 11,67.4054118 11,70.3730927 L11,98.6269076 C11,101.594588 13.3752997,104 16.30583,104 L20.7266242,104 C21.6397286,98.0548673 22.4124904,90.1671071 22.4931876,80.2727646 C22.5484474,73.4127227 23.9623998,68.5086322 26,65 L16.30583,65 Z" id="Path" fill="#FFDE55"></path>
                        <path d="M66.1822184,112 C61.1109156,112 57,107.889084 57,102.817782 L57,65.1822181 C57,60.1109154 61.1109156,56 66.1822184,56 L103.817782,56 C108.889084,56 113,60.1109154 113,65.1822181 L113,102.817782 C113,107.889084 108.889084,112 103.817782,112 L66.1822184,112 Z" id="Path" fill="#3891D6"></path>
                        <path d="M67.204821,56 C62.1210349,56 58,60.1109154 58,65.1822181 L58,102.817782 C58,107.889084 62.1210349,112 67.204821,112 L96,112 C92.3025404,109.559859 84.0419395,102.741197 78.6704751,87.928697 C73.6590496,74.1073943 76.6646695,61.9489435 78.8619663,56 L67.204821,56 Z" id="Path" fill="#3891D6"></path>
                        <path d="M71.3730925,104 C68.4054116,104 66,101.594588 66,98.6269076 L66,70.3730927 C66,67.4054118 68.4054116,65 71.3730925,65 L99.6269075,65 C102.594588,65 105,67.4054118 105,70.3730927 L105,98.6269076 C105,101.594588 102.594588,104 99.6269075,104 L71.3730925,104 Z" id="Path" fill="#FDD58B"></path>
                        <path d="M72.2735277,65 C69.3608387,65 67,67.4054118 67,70.3730927 L67,98.6269076 C67,101.594588 69.3608387,104 72.2735277,104 L87,104 C84.143978,100.216007 81.2025194,95.1475882 78.8303473,88.46431 C75.6691949,79.5612674 75.7363236,71.3421858 76.762434,65 L72.2735277,65 Z" id="Path" fill="#FFDE55"></path>
                        <g id="Group" transform="translate(18.000000, 14.000000)" fill="#ECB44C">
                            <path d="M20.058385,66.2081851 C20.5903863,65.082946 20.8854532,63.8235609 20.8792876,62.4971026 C20.8581485,57.7278539 16.8831127,53.9196918 12.1232869,53.9196918 L3.31531908,53.9196918 C1.52818247,53.9196918 0.0792715974,55.3714708 0.0792715974,57.1621453 L0.0792715974,80.2511689 C0.0792715974,82.0427259 1.52818247,83.4945051 3.31531908,83.4945051 L13.248945,83.4945051 C18.3373082,83.4945051 22.6267884,79.5063048 22.802067,74.410516 C22.8910274,71.8070218 21.9177471,69.4285752 20.2856307,67.6723198 C19.9165768,67.2760592 19.8267356,66.6988776 20.058385,66.2081851 Z M6.55136656,60.4045991 L12.2800688,60.4045991 C13.4532899,60.4045991 15.017585,61.1635839 15.017585,63.2251984 C15.017585,65.2876954 13.4532899,65.9849025 12.2800688,65.9849025 L6.55136656,65.9849025 L6.55136656,60.4045991 Z M13.4127734,77.0087151 L6.55136656,77.0087151 L6.55136656,71.1521769 L13.4127734,71.1521769 C15.0237506,71.1521769 16.335257,72.4662796 16.335257,74.080446 C16.335257,75.6954949 15.0246313,77.0087151 13.4127734,77.0087151 Z" id="Shape" fill-rule="nonzero"></path>
                            <path d="M68.9478911,83.4945051 C61.6223042,83.4945051 55.6619525,76.8604484 55.6619525,68.7066572 C55.6619525,60.5528659 61.6223042,53.9196918 68.9478911,53.9196918 C72.5494691,53.9196918 75.9185167,55.4914963 78.4340723,58.3447498 C79.6169825,59.6870938 79.4901477,61.7363526 78.1513366,62.922487 C76.8116448,64.1086213 74.7664345,63.980653 73.5835246,62.638309 C72.3134156,61.198003 70.6672065,60.4045991 68.9478911,60.4045991 C65.190412,60.4045991 62.134928,64.1289198 62.134928,68.7075397 C62.134928,73.2852771 65.1912929,77.0095979 68.9478911,77.0095979 C70.6830607,77.0095979 72.3407203,76.2029558 73.6152331,74.7388213 C74.7893354,73.3894168 76.8345454,73.2499755 78.1812836,74.4264019 C79.5280221,75.6037107 79.6671878,77.6520873 78.4930858,79.0014916 C75.9713645,81.898872 72.5811778,83.4945051 68.9478911,83.4945051 Z" id="Path"></path>
                            <path d="M53.3815697,24.2972214 L45.1196957,4.03762265 C44.1085412,1.55856656 41.9400194,0.0185332931 39.4605765,0.0185332931 C36.9811335,0.0185332931 34.8126119,1.55856656 33.8014572,4.03762265 L25.5395834,24.2972214 C24.8631315,25.9546323 25.6567293,27.8476815 27.3108658,28.5254726 C28.965002,29.2023811 30.855192,28.4080947 31.5307632,26.7498014 L32.5119707,24.3448785 L46.4091822,24.3448785 L47.3903899,26.7498014 C47.9021328,28.006539 49.6355408,29.3718289 51.6102873,28.5254726 C53.2529733,27.8212054 54.0571407,25.9546323 53.3815697,24.2972214 Z M37.0172463,13.2972371 L39.4605765,7.30655251 L41.9039068,13.2972371 L43.7641496,17.8590887 L35.1561225,17.8590887 L37.0172463,13.2972371 Z" id="Shape" fill-rule="nonzero"></path>
                        </g>
                        <path d="M97.2258999,88.3132445 C95.0492268,86.6383227 91.8745318,86.7831115 90.0262755,88.775026 C89.0437622,89.8322399 87.7957787,90.4148214 86.5122166,90.4148214 C83.5865709,90.4148214 81.2073742,87.5370405 81.2073742,84.0004283 C81.2073742,80.4629593 83.5865709,77.5860351 86.5122166,77.5860351 C87.7830068,77.5860351 89.0218678,78.1583357 90.000732,79.1984151 C90.9029657,80.157961 93.7565421,82.4797193 97.2040055,79.6173596 C100.126914,77.1902225 98.5523385,73.8121068 97.6501048,72.8525608 C94.7071262,69.7237557 90.7515292,68 86.5122166,68 C85.0425517,68 83.5874831,68.2133276 82.1871506,68.6322721 C81.2657594,68.9089984 80.7567133,69.8342748 81.050464,70.6995797 C81.3442146,71.5648844 82.330377,72.0420871 83.2517682,71.7670744 C84.3072633,71.4509384 85.4047223,71.2898718 86.5122166,71.2898718 C89.7325249,71.2898718 92.7557834,72.6186716 95.0245954,75.0303873 C95.3073989,75.3311022 95.8556723,76.248668 94.8841062,77.1516692 C93.9125401,78.0546705 92.9090446,77.3213033 92.6253289,77.0197317 C90.9732103,75.2634199 88.8020109,74.2961634 86.5122166,74.2961634 C81.6552982,74.2961634 77.7042625,78.6492462 77.7042625,84.0004283 C77.7042625,89.3516103 81.6552982,93.7046931 86.5122166,93.7046931 C88.8229931,93.7046931 91.0087888,92.7220154 92.666381,90.9374313 C93.2465838,90.3120129 94.3011664,90.2057776 94.924246,90.7926427 C95.9113208,91.7213461 95.3593981,92.6097828 95.0784194,92.9130679 C92.8041336,95.3616234 89.7617175,96.7101282 86.5122166,96.7101282 C79.8900582,96.7101282 74.5031117,91.0085406 74.5031117,84.0004283 C74.5031117,80.6617224 75.7246395,77.504645 77.9414523,75.1109207 C78.5763913,74.4255308 78.4988485,73.387165 77.7690336,72.7908757 C77.0401309,72.1945865 75.933549,72.2665524 75.29861,72.9519424 C72.5262254,75.9436695 71,79.867527 71,84.0004283 C71,92.8231103 77.9587855,100 86.5122166,100 C90.7889321,100 94.8293701,98.299376 97.718525,95.075473 C100.122353,92.3913147 98.6672844,89.4218628 97.2258999,88.3132445 Z" id="Path" fill="#34433F"></path>
                        <path d="M24.7127565,82 L30.5147191,82 C32.7439786,82 35,80.4653152 35,77.530552 C35,74.5559381 32.7439786,73 30.5147191,73 L24.7127565,73 C23.767172,73 23,73.7615861 23,74.7002853 L23,80.2997147 C23,81.2392994 23.767172,82 24.7127565,82 Z M26.425513,76.4005707 L30.5147191,76.4005707 C30.9099019,76.4005707 31.574487,76.5475744 31.574487,77.530552 C31.574487,78.2398897 31.2176627,78.5994293 30.5147191,78.5994293 L26.425513,78.5994293 L26.425513,76.4005707 Z" id="Shape" fill="#34433F" fill-rule="nonzero"></path>
                        <path d="M24.6697886,94 L31.444608,94 C33.9562484,94 36,91.9819588 36,89.5 C36,87.0189003 33.9562484,85 31.444608,85 L24.6697886,85 C23.7479259,85 23,85.7388314 23,86.6494846 L23,92.3505154 C23,93.2620276 23.7479259,94 24.6697886,94 Z M26.3395773,88.2989692 L31.444608,88.2989692 C32.1151326,88.2989692 32.6604227,88.8384878 32.6604227,89.5 C32.6604227,90.1623712 32.1142629,90.7010308 31.444608,90.7010308 L26.3395773,90.7010308 L26.3395773,88.2989692 Z" id="Shape" fill="#34433F" fill-rule="nonzero"></path>
                        <path d="M20.9062542,100 L30.7976974,100 C33.6902299,100 36.4406791,98.9333617 38.5438605,96.997992 C40.6689684,95.0412037 41.8942165,92.4118766 41.9933239,89.5932103 C42.0915542,86.8019596 41.1031115,84.1349361 39.2051612,82.0547776 C39.7919119,80.7636742 40.0866029,79.3886107 40.0795865,77.9638565 C40.0550289,72.4695991 35.3882113,68 29.6768193,68 L20.9062542,68 C18.2005349,68 16,70.1495542 16,72.7925891 L16,95.2074107 C16,97.8495889 18.2005349,100 20.9062542,100 Z M19.367897,72.7925891 C19.367897,71.9641242 20.0581405,71.2898718 20.9062542,71.2898718 L29.6768193,71.2898718 C33.5393761,71.2898718 36.6950256,74.2901664 36.7116895,77.978421 C36.7160749,78.9893711 36.4959337,79.9626249 36.0565284,80.8707665 C35.5285403,81.9605366 35.7311404,83.2345052 36.5731147,84.1178013 C37.9676344,85.5802522 38.6973454,87.4847795 38.6271809,89.480121 C38.4868518,93.4665202 34.9742406,96.7101282 30.7976974,96.7101282 L20.9062542,96.7101282 C20.0581405,96.7101282 19.367897,96.0358758 19.367897,95.2074107 L19.367897,72.7925891 Z" id="Shape" fill="#34433F" fill-rule="nonzero"></path>
                        <path d="M57.0002886,21 C56.3126892,21 55.6938499,21.4183073 55.4329147,22.0581755 L52.9875291,28.0740013 L51.1257215,32.6549979 C50.9123895,33.1796545 50.9732155,33.776983 51.2879244,34.2475787 C51.6017518,34.7181744 52.1289115,35 52.6922139,35 L61.3074818,35 C61.8716659,35 62.3979439,34.7181744 62.7126528,34.2475787 C63.0273619,33.776983 63.0873062,33.1796545 62.8739742,32.6549979 L58.566781,22.0581755 C58.3067275,21.4174211 57.687888,21 57.0002886,21 Z M55.2125302,31.5977084 L57.0002886,27.1992782 L58.7871655,31.5977084 L55.2125302,31.5977084 Z" id="Shape" fill="#34433F" fill-rule="nonzero"></path>
                        <path d="M56.9900581,13 C53.7789792,13 50.9840686,14.8754763 49.6964356,17.893435 L41.3543879,37.4356761 C40.0071754,40.8954743 42.8483267,43.1651156 44.0781585,43.6461161 C46.6178545,44.639616 49.5274782,43.4690398 50.5643429,41.0384974 L51.1210129,39.7351138 L62.8582142,39.7351138 L63.4148842,41.0384974 C64.9346114,44.9971741 69.2972682,43.8938526 69.9268567,43.6359001 C72.4781129,42.5913202 73.6625931,39.867921 72.6248392,37.4356761 L64.2836809,17.893435 C62.9960479,14.8754763 60.2011374,13 56.9900581,13 Z M68.5840904,40.6298599 C68.2097163,40.7830989 66.9825525,40.8954743 66.5761654,39.8023688 L65.5855418,37.4824992 C65.3232132,36.8678401 64.6989604,36.4660131 64.0053457,36.4660131 L49.9747706,36.4660131 C49.2811562,36.4660131 48.6569033,36.8678401 48.3945747,37.4824992 L47.4039509,39.8023688 C47.0784857,40.5643076 46.1661159,40.9312302 45.3702379,40.6196439 C44.9843036,40.4689589 44.0977221,39.8100307 44.5156692,38.6726561 L52.8568275,19.1295637 C53.6100217,17.3647602 55.1937746,16.2691007 56.9900581,16.2691007 C58.7863417,16.2691007 60.3692054,17.3647602 61.1223996,19.1295637 L69.4635579,38.6726561 C69.789023,39.4354462 69.403089,40.2952879 68.5840904,40.6298599 Z" id="Shape" fill="#34433F" fill-rule="nonzero"></path>
                        <path d="M43.6264684,6 C38.8696546,6 35,9.86965457 35,14.6264684 L35,42.3735316 C35,47.1303454 38.8696546,51 43.6264684,51 L71.3735316,51 C76.1303454,51 80,47.1303454 80,42.3735316 L80,14.6264684 C80,9.86965457 76.1303454,6 71.3735316,6 L43.6264684,6 Z M76.6502539,14.6264684 L76.6502539,42.3735316 C76.6502539,45.2879851 74.2879851,47.6502539 71.3735316,47.6502539 L43.6264684,47.6502539 C40.7120149,47.6502539 38.3497461,45.2879851 38.3497461,42.3735316 L38.3497461,14.6264684 C38.3497461,11.7120149 40.7120149,9.34974606 43.6264684,9.34974606 L71.3735316,9.34974606 C74.2879851,9.34974606 76.6502539,11.7120149 76.6502539,14.6264684 Z" id="Shape" fill="#34433F" fill-rule="nonzero"></path>
                        <path d="M43.3735316,107 C48.1303454,107 52,103.130345 52,98.3735317 L52,70.6264686 C52,65.8696548 48.1303454,62 43.3735316,62 L15.6264684,62 C10.8696546,62 7,65.8696548 7,70.6264686 L7,98.3735317 C7,103.130345 10.8696546,107 15.6264684,107 L43.3735316,107 Z M10.3497461,98.3735317 L10.3497461,70.6264686 C10.3497461,67.7120151 12.7120149,65.349746 15.6264684,65.349746 L43.3735316,65.349746 C46.2879851,65.349746 48.6502539,67.7120151 48.6502539,70.6264686 L48.6502539,98.3735317 C48.6502539,101.287985 46.2879851,103.650254 43.3735316,103.650254 L15.6264684,103.650254 C12.7120149,103.650254 10.3497461,101.287985 10.3497461,98.3735317 Z" id="Shape" fill="#34433F" fill-rule="nonzero"></path>
                        <path d="M99.3735316,62 L71.6264684,62 C66.8696546,62 63,65.8696548 63,70.6264686 L63,98.3735317 C63,103.130345 66.8696546,107 71.6264684,107 L99.3735316,107 C104.130345,107 108,103.130345 108,98.3735317 L108,70.6264686 C108,65.8696548 104.130345,62 99.3735316,62 Z M104.650254,98.3735317 C104.650254,101.287985 102.287985,103.650254 99.3735316,103.650254 L71.6264684,103.650254 C68.7120149,103.650254 66.3497461,101.287985 66.3497461,98.3735317 L66.3497461,70.6264686 C66.3497461,67.7120151 68.7120149,65.349746 71.6264684,65.349746 L99.3735316,65.349746 C102.287985,65.349746 104.650254,67.7120151 104.650254,70.6264686 L104.650254,98.3735317 Z" id="Shape" fill="#34433F" fill-rule="nonzero"></path>
                        <path d="M104.163475,53.9046803 L85.5156327,53.9046803 C86.5360261,52.2366673 87.0922852,50.3058371 87.0922852,48.2751362 L87.0922852,42.5763836 C87.0922852,41.6477629 86.337738,40.8943537 85.4077148,40.8943537 C84.4776917,40.8943537 83.7231445,41.6477629 83.7231445,42.5763836 L83.7231445,48.2751362 C83.7231445,50.4635274 82.7904891,52.4863436 81.149788,53.9046803 L66.6519547,53.9046803 C64.4277954,53.9046803 62.3580551,54.5783683 60.63488,55.7312597 L54.36512,55.7312597 C52.6419449,54.5783683 50.5722046,53.9046803 48.3480453,53.9046803 L33.8475798,53.9046803 C32.2086335,52.4854676 31.2768555,50.4573949 31.2768555,48.2751362 L31.2768555,10.8201835 C31.2768555,6.70884651 34.6266936,3.36405994 38.7442399,3.36405994 L76.2557601,3.36405994 C80.3733064,3.36405994 83.7231445,6.70884651 83.7231445,10.8201835 L83.7231445,34.8793445 C83.7231445,35.807965 84.4776917,36.5613745 85.4077148,36.5613745 C86.337738,36.5613745 87.0922852,35.807965 87.0922852,34.8793445 L87.0922852,10.8201835 C87.0922852,4.85423331 82.2307206,0 76.2557601,0 L38.7442399,0 C32.7692794,0 27.9077148,4.85423331 27.9077148,10.8201835 L27.9077148,48.2751362 C27.9077148,50.3014566 28.4648514,52.2349151 29.4861222,53.9046803 L10.836525,53.9046803 C4.86156458,53.9046803 0,58.7589137 0,64.7248636 L0,70.9045717 C0,71.8331925 0.754547119,72.5866017 1.68457031,72.5866017 C2.61459351,72.5866017 3.36914062,71.8331925 3.36914062,70.9045717 L3.36914062,64.7248636 C3.36914062,60.6135269 6.71897877,57.2687403 10.836525,57.2687403 L48.3480453,57.2687403 C52.4655915,57.2687403 55.8154297,60.6135269 55.8154297,64.7248636 L55.8154297,102.179817 C55.8154297,106.291153 52.4655915,109.63594 48.3480453,109.63594 L10.836525,109.63594 C6.71897877,109.63594 3.36914062,106.291153 3.36914062,102.179817 L3.36914062,77.8823679 C3.36914062,76.9537472 2.61459351,76.2003379 1.68457031,76.2003379 C0.754547119,76.2003379 0,76.9537472 0,77.8823679 L0,102.179817 C0,108.146643 4.86156458,113 10.836525,113 L48.3480453,113 C52.1944808,113 55.5759049,110.987696 57.5,107.962671 C59.4240951,110.987696 62.8055192,113 66.6519547,113 L104.163475,113 C110.138435,113 115,108.146643 115,102.179817 L115,64.7248636 C115,58.7589137 110.138435,53.9046803 104.163475,53.9046803 Z M111.630859,102.179817 C111.630859,106.291153 108.281021,109.63594 104.163475,109.63594 L66.6519547,109.63594 C62.5344085,109.63594 59.1845703,106.291153 59.1845703,102.179817 L59.1845703,64.7248636 C59.1845703,60.6135269 62.5344085,57.2687403 66.6519547,57.2687403 L104.163475,57.2687403 C108.281021,57.2687403 111.630859,60.6135269 111.630859,64.7248636 L111.630859,102.179817 Z" id="Shape" fill="#34433F" fill-rule="nonzero"></path>
                    </g>
                </g>
            </g>
        </g>
    </g>
</svg>