<?xml version="1.0" encoding="UTF-8"?>
<svg width="94px" height="98px" viewBox="0 0 94 98" version="1.1" xmlns="http://www.w3.org/2000/svg" xmlns:xlink="http://www.w3.org/1999/xlink">
    <!-- Generator: Sketch 52.2 (67145) - http://www.bohemiancoding.com/sketch -->
    <title>picture</title>
    <desc>Created with Sketch.</desc>
    <g id="Webdesign" stroke="none" stroke-width="1" fill="none" fill-rule="evenodd">
        <g id="Dashboard-User" transform="translate(-1044.000000, -871.000000)">
            <g id="Dashboard" transform="translate(250.000000, 115.000000)">
                <g id="writing-alphabet" transform="translate(620.000000, 675.000000)">
                    <g id="picture" transform="translate(174.000000, 81.000000)">
                        <polygon id="Path" fill="#FDD58B" points="2.66037736 1.78181818 70.0566038 1.78181818 70.0566038 96.2181818 2.66037736 96.2181818"></polygon>
                        <polygon id="Path" fill="#E5F0F0" points="10.6415094 9.8 61.1886792 9.8 61.1886792 60.5818182 10.6415094 60.5818182"></polygon>
                        <polygon id="Path" fill="#3891D6" points="23.9433962 70.3818182 80.6981132 70.3818182 80.6981132 86.4181818 23.9433962 86.4181818"></polygon>
                        <polygon id="Path" fill="#FF9F9E" points="11.5283019 78.3996089 18.1796202 74.3911047 24.8301887 70.3818182 24.8301887 86.4181818 18.1796202 82.4088953"></polygon>
                        <path d="M80.6981132,70.3818182 L87.3295131,70.3818182 C89.5352846,70.3818182 91.3396226,72.3798118 91.3396226,74.8221517 L91.3396226,81.9778481 C91.3396226,84.419406 89.5352846,86.4181818 87.3295131,86.4181818 L80.6981132,86.4181818 L80.6981132,70.3818182 Z" id="Path" fill="#FF9F9E"></path>
                        <polygon id="Path" fill="#9EE2D0" points="10.6415094 43.3526855 10.6415094 60.5818182 61.1886792 60.5818182 61.1886792 42.1325003 50.9488729 32.0109278 42.7786327 40.0868307 28.3624458 25.8363636"></polygon>
                        <path d="M1.93162897,73.0545455 C2.99855226,73.0545455 3.86325794,72.1987351 3.86325794,71.1427875 L3.86325794,3.82351597 L67.9669307,3.82351597 L67.9669307,10.3488836 C67.9669307,11.4048312 68.8316366,12.2606415 69.8985597,12.2606415 C70.965483,12.2606415 71.8301887,11.4048312 71.8301887,10.3488836 L71.8301887,1.91175798 C71.8301887,0.855810315 70.965483,0 69.8985597,0 L1.93162897,0 C0.864705685,0 0,0.855810315 0,1.91175798 L0,71.1427875 C0,72.1987351 0.864705685,73.0545455 1.93162897,73.0545455 Z" id="Path" fill="#34433F"></path>
                        <path d="M9.91003022,8.01818182 C8.84461548,8.01818182 7.98113208,8.88641869 7.98113208,9.95600768 L7.98113208,61.3167196 C7.98113208,62.3870655 8.84461548,63.2545455 9.91003022,63.2545455 L61.033366,63.2545455 C62.0987807,63.2545455 62.9622642,62.3870655 62.9622642,61.3167196 L62.9622642,9.95600768 C62.9622642,8.88641869 62.0987807,8.01818182 61.033366,8.01818182 L9.91003022,8.01818182 Z M59.1044679,11.8938335 L59.1044679,37.6737301 L52.0406318,30.5764429 C51.6789634,30.2131005 51.1884506,30.0087206 50.6768404,30.0087206 C50.1652305,30.0087206 49.6747177,30.2131005 49.3130493,30.5764429 L42.4134711,37.5079553 L29.1967514,24.2300632 C28.835083,23.8667208 28.3445702,23.6623409 27.8329601,23.6623409 C27.3213499,23.6623409 26.8308371,23.8667208 26.4691687,24.2300632 L11.8389284,38.9280183 L11.8389284,11.8938335 L59.1044679,11.8938335 Z M11.8389284,59.3788937 L11.8389284,44.4084321 L27.8329601,28.3411305 L47.3291474,47.928311 C47.7058854,48.3067926 48.1994119,48.4952764 48.6929386,48.4952764 C49.1864653,48.4952764 49.6807455,48.3060357 50.0574834,47.928311 C50.8102058,47.1713477 50.8102058,45.9443104 50.0574834,45.1873472 L45.1410536,40.2489191 L50.6768404,34.6875102 L59.1044679,43.1541438 L59.1044679,59.3788937 L11.8389284,59.3788937 Z" id="Shape" fill="#34433F" fill-rule="nonzero"></path>
                        <path d="M87.8109249,69.0679306 L71.3899654,69.0679306 L71.3899654,25.9610087 C71.3899654,24.9079857 70.5305592,24.0545455 69.4701747,24.0545455 C68.4097904,24.0545455 67.5503841,24.9079857 67.5503841,25.9610087 L67.5503841,69.0679306 L24.2186092,69.0679306 C24.2178593,69.0679306 24.2171092,69.0679306 24.2163594,69.0679306 C24.1398678,69.0679306 24.0641259,69.0738883 23.9898842,69.08208 C23.9703862,69.0850589 23.9508882,69.0880377 23.9306406,69.0910166 C23.8721469,69.0999531 23.8144032,69.1111238 23.7574094,69.1252734 C23.7386615,69.1297416 23.7199136,69.1349546 23.7011655,69.139423 C23.6314232,69.1595301 23.5624307,69.1818716 23.495688,69.2086812 C23.4919385,69.2101705 23.4881887,69.2109154 23.4844392,69.2124047 C23.4109471,69.2429379 23.3412048,69.2779394 23.2729621,69.3159198 C23.2677129,69.3188986 23.2624634,69.3203879 23.257964,69.3233668 L9.95666425,76.9566671 C9.36347907,77.2970005 8.99751898,77.9262823 8.99751898,78.6069493 C8.99751898,79.2876162 9.36347907,79.9168981 9.95666425,80.2579762 L23.257964,87.8905317 C23.2632133,87.8935105 23.2677129,87.895 23.2729621,87.8979789 C23.3412048,87.9359593 23.4116972,87.9709606 23.4844392,88.0014939 C23.4889386,88.0029833 23.4926883,88.0037279 23.4964379,88.0052174 C23.5631806,88.0320271 23.6314232,88.0551132 23.7011655,88.073731 C23.7199136,88.078944 23.7386615,88.0834122 23.7581593,88.0886252 C23.8151531,88.1027748 23.8728967,88.1139453 23.9313904,88.1221372 C23.9508882,88.1251161 23.9703862,88.1288396 23.990634,88.1310738 C24.0656259,88.1400103 24.1413676,88.145968 24.2186092,88.145968 L67.5503841,88.145968 L67.5503841,94.1870735 L3.83958132,94.1870735 L3.83958132,86.5865405 C3.83958132,85.5335176 2.98017513,84.6800773 1.91979066,84.6800773 C0.859406192,84.6800773 0,85.5335176 0,86.5865405 L0,96.0935367 C0,97.1465599 0.859406192,98 1.91979066,98 L69.4701747,98 C70.5305592,98 71.3899654,97.1465599 71.3899654,96.0935367 L71.3899654,88.1467127 L87.8101749,88.1467127 C91.2230528,88.1467127 94,85.395001 94,82.0132629 L94,75.2013802 C94,71.8188974 91.2230528,69.0679306 87.8109249,69.0679306 Z M78.8291542,76.7004861 L26.1383998,76.7004861 L26.1383998,72.8808572 L78.8291542,72.8808572 L78.8291542,76.7004861 Z M22.2988185,74.2779371 L22.2988185,82.9359614 L14.7546412,78.6069493 L22.2988185,74.2779371 Z M26.1383998,80.5134126 L78.8291542,80.5134126 L78.8291542,84.3330415 L26.1383998,84.3330415 L26.1383998,80.5134126 Z M90.1604187,82.0132629 C90.1604187,83.2926786 89.1060336,84.3337861 87.8109249,84.3337861 L82.6687355,84.3337861 L82.6687355,72.8808572 L87.8109249,72.8808572 C89.1060336,72.8808572 90.1604187,73.9219647 90.1604187,75.2013802 L90.1604187,82.0132629 Z" id="Shape" fill="#34433F" fill-rule="nonzero"></path>
                        <path d="M1.77358491,81.0727273 C2.75044213,81.0727273 3.54716981,80.2723012 3.54716981,79.2909091 C3.54716981,78.3095171 2.75044213,77.5090909 1.77358491,77.5090909 C0.796727683,77.5090909 0,78.3095171 0,79.2909091 C0,80.2723012 0.796727683,81.0727273 1.77358491,81.0727273 Z" id="Path" fill="#000000"></path>
                        <path d="M69.1698113,16.0363636 C68.1929541,16.0363636 67.3962264,16.8367899 67.3962264,17.8181818 C67.3962264,18.799574 68.1929541,19.6 69.1698113,19.6 C70.1466687,19.6 70.9433962,18.799574 70.9433962,17.8181818 C70.9433962,16.8367899 70.1466687,16.0363636 69.1698113,16.0363636 Z" id="Path" fill="#000000"></path>
                    </g>
                </g>
            </g>
        </g>
    </g>
</svg>