<?xml version="1.0" encoding="UTF-8"?>
<svg width="22px" height="20px" viewBox="0 0 22 20" version="1.1" xmlns="http://www.w3.org/2000/svg" xmlns:xlink="http://www.w3.org/1999/xlink">
    <!-- Generator: Sketch 52.2 (67145) - http://www.bohemiancoding.com/sketch -->
    <title>sign-out</title>
    <desc>Created with Sketch.</desc>
    <g id="Webdesign" stroke="none" stroke-width="1" fill="none" fill-rule="evenodd">
        <g id="Dashboard-User" transform="translate(-1356.000000, -46.000000)" fill="#FFFFFF" stroke="#FFFFFF" stroke-width="0.5">
            <g id="top-menu">
                <g id="NAV" transform="translate(610.000000, 32.000000)">
                    <g id="sign-out" transform="translate(622.000000, 0.000000)">
                        <g id="btn-content" transform="translate(29.000000, 13.000000)">
                            <g id="sign-out" transform="translate(106.000000, 11.000000) scale(-1, 1) translate(-106.000000, -11.000000) translate(96.000000, 2.000000)">
                                <path d="M17.8947801,0 L8.77196878,0 C7.60926438,0 6.66670779,0.863449454 6.66670779,1.92857008 L6.66670779,5.78571025 C6.66670779,6.14076302 6.98089332,6.4285795 7.36847516,6.4285795 C7.75605699,6.4285795 8.07024253,6.14076302 8.07024253,5.78571025 L8.07024253,1.92857008 C8.07024253,1.57351732 8.38442806,1.28570083 8.7720099,1.28570083 L17.8948212,1.28570083 C18.2824031,1.28570083 18.5965886,1.57351732 18.5965886,1.92857008 L18.5965886,16.0714299 C18.5965886,16.4264827 18.2824031,16.7142992 17.8948212,16.7142992 L8.77196878,16.7142992 C8.38438694,16.7142992 8.07020141,16.4264827 8.07020141,16.0714299 L8.07020141,12.2142898 C8.07020141,11.859237 7.75601588,11.5714205 7.36843404,11.5714205 C6.9808522,11.5714205 6.66666667,11.859237 6.66666667,12.2142898 L6.66666667,16.0714299 C6.66666667,17.1365505 7.60922326,18 8.77192766,18 L17.894739,18 C19.0574434,18 20,17.1365505 20,16.0714299 L20,1.92857008 C20.0000411,0.863449454 19.0574845,0 17.8947801,0 Z" id="Path"></path>
                                <path d="M11.2874032,8.45313125 L1.92621261,8.45313125 L3.78481241,6.67504278 C4.00135858,6.46053699 3.99514131,6.1187198 3.77092276,5.91155403 C3.55219393,5.70948199 3.20544887,5.70948199 2.98675311,5.91155403 L0.164708036,8.61132136 C0.112291163,8.66149927 0.0708537228,8.72113694 0.0428098689,8.78681747 C-0.0142699563,8.91890621 -0.0142699563,9.0672569 0.0428098689,9.19934564 C0.0709860051,9.26524764 0.112621868,9.32507514 0.165270235,9.37537959 L2.98728224,12.0751469 C3.20382842,12.2896527 3.56112299,12.2956007 3.78534154,12.0884349 C4.00956009,11.8812691 4.01577735,11.5394519 3.79923118,11.3249461 C3.79470051,11.3204535 3.79007063,11.3160242 3.78534154,11.3116582 L1.92621261,9.53303186 L11.2874362,9.53303186 C11.5991595,9.53303186 11.8518519,9.29128573 11.8518519,8.99306574 C11.8518519,8.69484574 11.5991265,8.45313125 11.2874032,8.45313125 Z" id="Path"></path>
                            </g>
                        </g>
                    </g>
                </g>
            </g>
        </g>
    </g>
</svg>