<?xml version="1.0" encoding="UTF-8"?>
<svg width="102px" height="102px" viewBox="0 0 102 102" version="1.1" xmlns="http://www.w3.org/2000/svg" xmlns:xlink="http://www.w3.org/1999/xlink">
    <!-- Generator: Sketch 52.2 (67145) - http://www.bohemiancoding.com/sketch -->
    <title>hand</title>
    <desc>Created with Sketch.</desc>
    <g id="Webdesign" stroke="none" stroke-width="1" fill="none" fill-rule="evenodd">
        <g id="Dashboard-User" transform="translate(-530.000000, -865.000000)">
            <g id="Dashboard" transform="translate(250.000000, 115.000000)">
                <g id="abc-card" transform="translate(114.000000, 675.000000)">
                    <g id="hand" transform="translate(166.000000, 75.000000)">
                        <path d="M59.6006753,39.820963 L64.088304,46.9332314 C68.3177914,41.9667324 72.2472766,42.4843828 74.8263648,44.4627683 C78.0798764,46.9588041 78.0798764,50.7024703 75.6410993,54.0106285 C75.6410993,54.0106285 65.2425759,69.0364387 57.9828343,77.3149706 L57.9828343,101.12069 L14.616635,101.12069 L14.6282629,77.2351532 C11.1545949,73.626324 9.67241379,73.4442164 9.67241379,64.8526147 L9.67241379,15.9671984 C9.67241379,12.5195538 12.4747593,9.72362167 15.9305977,9.72362167 C19.3864363,9.72362167 22.1880065,12.5187789 22.1880065,15.9671984 L22.1880065,44.4767169 L22.1880065,35.5503471 C22.1880065,32.1019276 24.990352,29.3067704 28.4461906,29.3067704 C31.902029,29.3067704 34.7035994,32.1019276 34.7035994,35.5503471 L34.7035994,44.4782667 L34.7035994,35.510051 C34.7035994,32.0616315 37.5051696,29.2664743 40.9617833,29.2664743 C44.4176219,29.2664743 47.2191921,32.0616315 47.2191921,35.510051 L47.2191921,44.4767169 L47.2191921,9.76081811 C47.2199672,6.31239862 50.0215376,3.51724138 53.477376,3.51724138 C56.9339897,3.51724138 59.6006753,6.61539463 59.6006753,10.0638141 L59.6006753,39.820963 Z" id="Path" fill="#FDD58B"></path>
                        <path d="M59.7491379,100.241379 L11.475,100.241379 C9.50814424,100.241379 7.9137931,98.7356032 7.9137931,96.8780172 L7.9137931,88.6564655 C7.9137931,86.7988795 9.50814424,85.2931034 11.475,85.2931034 L59.7491379,85.2931034 C61.7159937,85.2931034 63.3103448,86.7988795 63.3103448,88.6564655 L63.3103448,96.8780172 C63.3103448,98.7356032 61.7159937,100.241379 59.7491379,100.241379 Z" id="Path" fill="#FF9F9E"></path>
                        <polygon id="Path" fill="#9C9C9C" points="1.75862069 35.1724138 9.67241379 35.1724138 9.67241379 50.1206897 1.75862069 50.1206897"></polygon>
                        <polygon id="Path" fill="#3891D6" points="68.5862069 33.4137931 76.5 33.4137931 76.5 53.637931 68.5862069 53.637931"></polygon>
                        <polygon id="Path" fill="#9C9C9C" points="59.7931034 33.4137931 67.7068966 33.4137931 67.7068966 53.637931 59.7931034 53.637931"></polygon>
                        <path d="M101.12069,43.0862069 C101.12069,49.8849475 95.6090855,55.3965517 88.8103448,55.3965517 C82.0116042,55.3965517 76.5,49.8849475 76.5,43.0862069 C76.5,36.2874663 82.0116042,30.7758621 88.8103448,30.7758621 C95.6090855,30.7758621 101.12069,36.2874663 101.12069,43.0862069 Z" id="Path" fill="#E5F0F0"></path>
                        <path d="M40.0086207,93.2068966 C41.2219659,93.2068966 42.2068966,92.2219659 42.2068966,91.0086207 C42.2068966,89.7952755 41.2219659,88.8103448 40.0086207,88.8103448 C38.7952755,88.8103448 37.8103448,89.7952755 37.8103448,91.0086207 C37.8103448,92.2219659 38.7952755,93.2068966 40.0086207,93.2068966 Z" id="Path" fill="#34433F"></path>
                        <path d="M47.0431034,93.2068966 C48.2564486,93.2068966 49.2413793,92.2219659 49.2413793,91.0086207 C49.2413793,89.7952755 48.2564486,88.8103448 47.0431034,88.8103448 C45.8297583,88.8103448 44.8448276,89.7952755 44.8448276,91.0086207 C44.8448276,92.2219659 45.8297583,93.2068966 47.0431034,93.2068966 Z" id="Path" fill="#34433F"></path>
                        <path d="M55.8362069,93.2068966 C57.0495521,93.2068966 58.0344828,92.2219659 58.0344828,91.0086207 C58.0344828,89.7952755 57.0495521,88.8103448 55.8362069,88.8103448 C54.6228617,88.8103448 53.637931,89.7952755 53.637931,91.0086207 C53.637931,92.2219659 54.6228617,93.2068966 55.8362069,93.2068966 Z" id="Path" fill="#34433F"></path>
                        <path d="M16.2672414,93.2068966 C17.4805866,93.2068966 18.4655172,92.2219659 18.4655172,91.0086207 C18.4655172,89.7952755 17.4805866,88.8103448 16.2672414,88.8103448 C15.0538962,88.8103448 14.0689655,89.7952755 14.0689655,91.0086207 C14.0689655,92.2219659 15.0538962,93.2068966 16.2672414,93.2068966 Z" id="Path" fill="#34433F"></path>
                        <path d="M25.0603448,93.2068966 C26.27369,93.2068966 27.2586207,92.2219659 27.2586207,91.0086207 C27.2586207,89.7952755 26.27369,88.8103448 25.0603448,88.8103448 C23.8469997,88.8103448 22.862069,89.7952755 22.862069,91.0086207 C22.862069,92.2219659 23.8469997,93.2068966 25.0603448,93.2068966 Z" id="Path" fill="#34433F"></path>
                        <path d="M32.0948276,93.2068966 C33.3081728,93.2068966 34.2931034,92.2219659 34.2931034,91.0086207 C34.2931034,89.7952755 33.3081728,88.8103448 32.0948276,88.8103448 C30.8814824,88.8103448 29.8965517,89.7952755 29.8965517,91.0086207 C29.8965517,92.2219659 30.8814824,93.2068966 32.0948276,93.2068966 Z" id="Path" fill="#34433F"></path>
                        <path d="M88.0546875,29.2851563 C84.1551361,29.2851563 80.6267853,30.8960267 78.09375,33.484314 L78.09375,33.2695313 C78.09375,32.1691588 77.2019349,31.2773438 76.1015625,31.2773438 L62.15625,31.2773438 L62.15625,8.56640625 C62.15625,3.84274282 58.5049438,0 54.0170745,0 C49.4544984,0 45.7432708,3.70655828 45.7432708,8.26213069 L45.7432708,27.0571746 C44.4911499,26.2960969 43.0226898,25.8579712 41.453064,25.8579712 C38.9332582,25.8579712 36.6725921,26.9886932 35.1535491,28.7684326 C33.6352845,27.0120392 31.3901824,25.8984375 28.8890534,25.8984375 C27.3194274,25.8984375 25.8509675,26.3365632 24.5996247,27.0976409 L24.5996247,14.4947204 C24.5996247,9.93914795 20.887619,6.23258967 16.3250426,6.23258967 C11.7624665,6.23258967 8.05046077,9.93914795 8.05046077,14.4947204 L8.05046077,33.2695313 L1.9921875,33.2695313 C0.891815086,33.2695313 0,34.1613463 0,35.2617188 L0,51.1992188 C0,52.2995912 0.891815086,53.1914063 1.9921875,53.1914063 L8.05046077,53.1914063 L8.05046077,63.5858001 C8.05046077,71.5950164 9.37339778,73.2346802 12.36557,76.1809388 C12.5803529,76.3918304 12.7990265,76.6073913 13.0254821,76.8346253 L13.0223695,82.078125 L11.953125,82.078125 C8.87768555,82.078125 6.375,84.5808105 6.375,87.65625 L6.375,90.046875 L4.3828125,90.046875 C3.28244009,90.046875 2.390625,90.9386901 2.390625,92.0390625 C2.390625,93.1394349 3.28244009,94.03125 4.3828125,94.03125 L6.375,94.03125 L6.375,96.421875 C6.375,99.4973145 8.87768555,102 11.953125,102 L60.5625,102 C63.6379395,102 66.140625,99.4973145 66.140625,96.421875 L66.140625,94.03125 L68.1328125,94.03125 C69.2331849,94.03125 70.125,93.1394349 70.125,92.0390625 C70.125,90.9386901 69.2331849,90.046875 68.1328125,90.046875 L66.140625,90.046875 L66.140625,87.65625 C66.140625,84.5808105 63.6379395,82.078125 60.5625,82.078125 L60.5329284,82.078125 L60.5329284,76.8462982 C66.258133,70.2098236 74.1031494,59.2061004 77.1451263,54.8863219 C77.7132111,54.5353547 78.09375,53.9089049 78.09375,53.1914063 L78.09375,52.9766235 C80.6267853,55.5649108 84.1551361,57.1757813 88.0546875,57.1757813 C95.7440643,57.1757813 102,50.9198455 102,43.2304688 C102,35.541092 95.7440643,29.2851563 88.0546875,29.2851563 Z M66.140625,35.2617188 L66.140625,51.1992188 L62.15625,51.1992188 L62.15625,35.2617188 L66.140625,35.2617188 Z M7.96875,49.2070312 L3.984375,49.2070312 L3.984375,37.2539063 L7.96875,37.2539063 L7.96875,49.2070312 Z M62.15625,87.65625 L62.15625,96.421875 C62.15625,97.3004608 61.4410858,98.015625 60.5625,98.015625 L11.953125,98.015625 C11.0745392,98.015625 10.359375,97.3004608 10.359375,96.421875 L10.359375,87.65625 C10.359375,86.7776642 11.0745392,86.0625 11.953125,86.0625 L60.5625,86.0625 C61.4410858,86.0625 62.15625,86.7776642 62.15625,87.65625 Z M17.0067445,82.078125 L17.0090789,78.09375 L28.8867188,78.09375 C29.9847565,78.09375 30.8789063,77.1996003 30.8789063,76.1015625 C30.8789063,75.0035247 29.9847565,74.109375 28.8867188,74.109375 L15.9336091,74.109375 C15.6596833,73.8338929 15.399765,73.5763093 15.1608581,73.3412933 C12.8231507,71.039383 12.0348358,70.2635192 12.0348358,63.5858001 L12.0348358,37.2539063 L14.5429688,37.2539063 C15.6433412,37.2539063 16.5351563,36.3620912 16.5351563,35.2617188 C16.5351563,34.1613463 15.6433412,33.2695313 14.5429688,33.2695313 L12.0348358,33.2695313 L12.0348358,21.515625 L14.5429688,21.515625 C15.6433412,21.515625 16.5351563,20.6238099 16.5351563,19.5234375 C16.5351563,18.4230651 15.6433412,17.53125 14.5429688,17.53125 L12.0348358,17.53125 L12.0348358,14.4947204 C12.0348358,12.1360016 13.95932,10.2169647 16.3250426,10.2169647 C18.6899871,10.2169647 20.6152497,12.1360016 20.6152497,14.4947204 L20.6152497,43.1246338 C20.6152497,44.2242279 21.5070648,45.1168213 22.6074372,45.1168213 C23.7078094,45.1168213 24.5996247,44.2242279 24.5996247,43.1246338 L24.5996247,34.1605682 C24.5996247,31.8018493 26.5241089,29.8828125 28.8890534,29.8828125 C31.2547761,29.8828125 33.1792603,31.8018493 33.1792603,34.1605682 L33.1792603,43.1261901 C33.1792603,44.2265625 34.0710755,45.1183776 35.1714478,45.1183776 C36.27182,45.1183776 37.1636353,44.2265625 37.1636353,43.1261901 L37.1636353,34.1201019 C37.1636353,31.7613832 39.0881195,29.8423462 41.453064,29.8423462 C43.8187866,29.8423462 45.7432708,31.7613832 45.7432708,34.1201019 L45.7432708,43.1246338 C45.7432708,44.2242279 46.6350861,45.1168213 47.7354583,45.1168213 C48.8358307,45.1168213 49.7276458,44.2242279 49.7276458,43.1246338 L49.7276458,33.8671875 L52.59375,33.8671875 C53.6941224,33.8671875 54.5859375,32.9753724 54.5859375,31.875 C54.5859375,30.7746276 53.6941224,29.8828125 52.59375,29.8828125 L49.7276458,29.8828125 L49.7276458,17.3320313 L52.59375,17.3320313 C53.6941224,17.3320313 54.5859375,16.4402162 54.5859375,15.3398438 C54.5859375,14.2394713 53.6941224,13.3476563 52.59375,13.3476563 L49.7276458,13.3476563 L49.7276458,8.26213069 C49.7276458,5.90341177 51.6521302,3.984375 54.0170745,3.984375 C56.2691803,3.984375 58.171875,6.08239746 58.171875,8.56640625 L58.171875,53.1914063 C58.171875,54.2917787 59.0636901,55.1835938 60.1640625,55.1835938 L72.0790558,55.1835938 C68.6767731,59.9609528 62.513443,68.4277497 57.6310272,74.109375 L44.8242188,74.109375 C43.726181,74.109375 42.8320313,75.0035247 42.8320313,76.1015625 C42.8320313,77.1996003 43.726181,78.09375 44.8242188,78.09375 L56.5485534,78.09375 L56.5485534,82.078125 L17.0067445,82.078125 Z M74.109375,51.1992188 L70.125,51.1992188 L70.125,35.2617188 L74.109375,35.2617188 L74.109375,51.1992188 Z M88.0546875,53.1914063 C82.5621644,53.1914063 78.09375,48.7229918 78.09375,43.2304688 C78.09375,37.7379457 82.5621644,33.2695313 88.0546875,33.2695313 C93.5472106,33.2695313 98.015625,37.7379457 98.015625,43.2304688 C98.015625,48.7229918 93.5472106,53.1914063 88.0546875,53.1914063 Z" id="Shape" fill="#34433F" fill-rule="nonzero"></path>
                        <path d="M36.4913793,73.862069 C35.2797514,73.862069 34.2931034,74.8487169 34.2931034,76.0603448 C34.2931034,77.2719727 35.2797514,78.2586207 36.4913793,78.2586207 C37.7030072,78.2586207 38.6896552,77.2719727 38.6896552,76.0603448 C38.6896552,74.8487169 37.7030072,73.862069 36.4913793,73.862069 Z" id="Path" fill="#34433F"></path>
                    </g>
                </g>
            </g>
        </g>
    </g>
</svg>