<?xml version="1.0" encoding="UTF-8"?>
<svg width="120px" height="105px" viewBox="0 0 120 105" version="1.1" xmlns="http://www.w3.org/2000/svg" xmlns:xlink="http://www.w3.org/1999/xlink">
    <!-- Generator: Sketch 52.2 (67145) - http://www.bohemiancoding.com/sketch -->
    <title>keyboard</title>
    <desc>Created with Sketch.</desc>
    <g id="Webdesign" stroke="none" stroke-width="1" fill="none" fill-rule="evenodd">
        <g id="Dashboard-User" transform="translate(-1013.000000, -257.000000)">
            <g id="Dashboard" transform="translate(250.000000, 115.000000)">
                <g id="abc-card" transform="translate(620.000000, 80.000000)">
                    <g id="keyboard" transform="translate(143.000000, 62.000000)">
                        <path d="M114,50 L6,50 C3.7910155,50 2,51.7910155 2,54 L2,98 C2,100.208984 3.7910155,102 6,102 L114,102 C116.208984,102 118,100.208984 118,98 L118,54 C118,51.7910155 116.208984,50 114,50 Z M98,58 L106,58 L106,66 L98,66 L98,58 Z M84,58 L92,58 L92,66 L84,66 L84,58 Z M84,72 L92,72 L92,80 L84,80 L84,72 Z M70,58 L78,58 L78,66 L70,66 L70,58 Z M70,72 L78,72 L78,80 L70,80 L70,72 Z M56,58 L64,58 L64,66 L56,66 L56,58 Z M56,72 L64,72 L64,80 L56,80 L56,72 Z M42,58 L50,58 L50,66 L42,66 L42,58 Z M42,72 L50,72 L50,80 L42,80 L42,72 Z M28,58 L36,58 L36,66 L28,66 L28,58 Z M28,72 L36,72 L36,80 L28,80 L28,72 Z M14,58 L22,58 L22,66 L14,66 L14,58 Z M8,72 L22,72 L22,80 L8,80 L8,72 Z M16,94 L8,94 L8,86 L16,86 L16,94 Z M98,94 L22,94 L22,86 L98,86 L98,94 Z M112,94 L104,94 L104,86 L112,86 L112,94 Z M112,80 L98,80 L98,72 L112,72 L112,80 Z" id="Shape" fill="#3891D6" fill-rule="nonzero"></path>
                        <polygon id="Path" fill="#FDD58B" points="22 88 98 88 98 96 22 96"></polygon>
                        <polygon id="Path" fill="#FDD58B" points="8 88 16 88 16 96 8 96"></polygon>
                        <polygon id="Path" fill="#FDD58B" points="8 72 22 72 22 80 8 80"></polygon>
                        <polygon id="Path" fill="#FDD58B" points="28 72 36 72 36 80 28 80"></polygon>
                        <polygon id="Path" fill="#FDD58B" points="43 72 51 72 51 80 43 80"></polygon>
                        <polygon id="Path" fill="#FDD58B" points="56 72 64 72 64 80 56 80"></polygon>
                        <polygon id="Path" fill="#FDD58B" points="69 72 77 72 77 80 69 80"></polygon>
                        <polygon id="Path" fill="#FDD58B" points="84 72 92 72 92 80 84 80"></polygon>
                        <polygon id="Path" fill="#FDD58B" points="98 72 112 72 112 80 98 80"></polygon>
                        <polygon id="Path" fill="#FDD58B" points="14 59 22 59 22 67 14 67"></polygon>
                        <polygon id="Path" fill="#FDD58B" points="28 59 36 59 36 67 28 67"></polygon>
                        <polygon id="Path" fill="#FDD58B" points="43 59 51 59 51 67 43 67"></polygon>
                        <polygon id="Path" fill="#FDD58B" points="56 59 64 59 64 67 56 67"></polygon>
                        <polygon id="Path" fill="#FDD58B" points="69 59 77 59 77 67 69 67"></polygon>
                        <polygon id="Path" fill="#FDD58B" points="84 59 92 59 92 67 84 67"></polygon>
                        <polygon id="Path" fill="#FDD58B" points="98 59 106 59 106 67 98 67"></polygon>
                        <polygon id="Path" fill="#FDD58B" points="104 88 112 88 112 96 104 96"></polygon>
                        <polygon id="Path" fill="#66E2DF" points="64 43 56 43 56 51 64 51"></polygon>
                        <g id="Group" fill="#34433F" fill-rule="nonzero">
                            <path d="M114,48.471223 L66,48.471223 L66,42.4280576 C66,41.3156193 65.1044923,40.4136691 64,40.4136691 L62,40.4136691 L62,14.2266187 C62,8.66442777 66.477539,4.15467626 72,4.15467626 C77.522461,4.15467626 82,8.66442777 82,14.2266187 L82,20.2697842 C82,28.0578351 88.267578,34.3705036 96,34.3705036 C103.732422,34.3705036 110,28.0578351 110,20.2697842 L110,0.125899281 L106,0.125899281 L106,20.2697842 C106,25.8319751 101.522461,30.3417266 96,30.3417266 C90.477539,30.3417266 86,25.8319751 86,20.2697842 L86,14.2266187 C86,6.43856777 79.732422,0.125899281 72,0.125899281 C64.267578,0.125899281 58,6.43856777 58,14.2266187 L58,40.4136691 L56,40.4136691 C54.8955078,40.4136691 54,41.3156193 54,42.4280576 L54,48.471223 L6,48.471223 C2.6865235,48.471223 0,51.177074 0,54.5143885 L0,98.8309353 C0,102.16825 2.6865235,104.874101 6,104.874101 L114,104.874101 C117.313477,104.874101 120,102.16825 120,98.8309353 L120,54.5143885 C120,51.177074 117.313477,48.471223 114,48.471223 Z M58,44.442446 L62,44.442446 L62,48.471223 L58,48.471223 L58,44.442446 Z M116,98.8309353 C116,99.9433735 115.104492,100.845324 114,100.845324 L6,100.845324 C4.89550775,100.845324 4,99.9433735 4,98.8309353 L4,54.5143885 C4,53.4019503 4.89550775,52.5 6,52.5 L114,52.5 C115.104492,52.5 116,53.4019503 116,54.5143885 L116,98.8309353 Z" id="Shape"></path>
                            <path d="M98,84.7302158 L22,84.7302158 C20.8955077,84.7302158 20,85.6321661 20,86.7446043 L20,94.8021583 C20,95.9145965 20.8955077,96.8165468 22,96.8165468 L98,96.8165468 C99.1044923,96.8165468 100,95.9145965 100,94.8021583 L100,86.7446043 C100,85.6321661 99.1044923,84.7302158 98,84.7302158 Z M96,92.7877698 L24,92.7877698 L24,88.7589928 L96,88.7589928 L96,92.7877698 Z" id="Shape"></path>
                            <path d="M16,84.7302158 L8,84.7302158 C6.89550775,84.7302158 6,85.6321661 6,86.7446043 L6,94.8021583 C6,95.9145965 6.89550775,96.8165468 8,96.8165468 L16,96.8165468 C17.1044923,96.8165468 18,95.9145965 18,94.8021583 L18,86.7446043 C18,85.6321661 17.1044923,84.7302158 16,84.7302158 Z M14,92.7877698 L10,92.7877698 L10,88.7589928 L14,88.7589928 L14,92.7877698 Z" id="Shape"></path>
                            <path d="M8,82.7158273 L22,82.7158273 C23.1044923,82.7158273 24,81.8138771 24,80.7014388 L24,72.6438849 C24,71.5314467 23.1044923,70.6294964 22,70.6294964 L8,70.6294964 C6.89550775,70.6294964 6,71.5314467 6,72.6438849 L6,80.7014388 C6,81.8138771 6.89550775,82.7158273 8,82.7158273 Z M10,74.6582734 L20,74.6582734 L20,78.6870504 L10,78.6870504 L10,74.6582734 Z" id="Shape"></path>
                            <path d="M28,82.7158273 L36,82.7158273 C37.1044923,82.7158273 38,81.8138771 38,80.7014388 L38,72.6438849 C38,71.5314467 37.1044923,70.6294964 36,70.6294964 L28,70.6294964 C26.8955078,70.6294964 26,71.5314467 26,72.6438849 L26,80.7014388 C26,81.8138771 26.8955078,82.7158273 28,82.7158273 Z M30,74.6582734 L34,74.6582734 L34,78.6870504 L30,78.6870504 L30,74.6582734 Z" id="Shape"></path>
                            <path d="M42,82.7158273 L50,82.7158273 C51.1044923,82.7158273 52,81.8138771 52,80.7014388 L52,72.6438849 C52,71.5314467 51.1044923,70.6294964 50,70.6294964 L42,70.6294964 C40.8955077,70.6294964 40,71.5314467 40,72.6438849 L40,80.7014388 C40,81.8138771 40.8955077,82.7158273 42,82.7158273 Z M44,74.6582734 L48,74.6582734 L48,78.6870504 L44,78.6870504 L44,74.6582734 Z" id="Shape"></path>
                            <path d="M56,82.7158273 L64,82.7158273 C65.1044923,82.7158273 66,81.8138771 66,80.7014388 L66,72.6438849 C66,71.5314467 65.1044923,70.6294964 64,70.6294964 L56,70.6294964 C54.8955078,70.6294964 54,71.5314467 54,72.6438849 L54,80.7014388 C54,81.8138771 54.8955078,82.7158273 56,82.7158273 Z M58,74.6582734 L62,74.6582734 L62,78.6870504 L58,78.6870504 L58,74.6582734 Z" id="Shape"></path>
                            <path d="M70,82.7158273 L78,82.7158273 C79.1044922,82.7158273 80,81.8138771 80,80.7014388 L80,72.6438849 C80,71.5314467 79.1044922,70.6294964 78,70.6294964 L70,70.6294964 C68.8955078,70.6294964 68,71.5314467 68,72.6438849 L68,80.7014388 C68,81.8138771 68.8955078,82.7158273 70,82.7158273 Z M72,74.6582734 L76,74.6582734 L76,78.6870504 L72,78.6870504 L72,74.6582734 Z" id="Shape"></path>
                            <path d="M84,82.7158273 L92,82.7158273 C93.1044923,82.7158273 94,81.8138771 94,80.7014388 L94,72.6438849 C94,71.5314467 93.1044923,70.6294964 92,70.6294964 L84,70.6294964 C82.8955078,70.6294964 82,71.5314467 82,72.6438849 L82,80.7014388 C82,81.8138771 82.8955078,82.7158273 84,82.7158273 Z M86,74.6582734 L90,74.6582734 L90,78.6870504 L86,78.6870504 L86,74.6582734 Z" id="Shape"></path>
                            <path d="M112,70.6294964 L98,70.6294964 C96.8955078,70.6294964 96,71.5314467 96,72.6438849 L96,80.7014388 C96,81.8138771 96.8955078,82.7158273 98,82.7158273 L112,82.7158273 C113.104492,82.7158273 114,81.8138771 114,80.7014388 L114,72.6438849 C114,71.5314467 113.104492,70.6294964 112,70.6294964 Z M110,78.6870504 L100,78.6870504 L100,74.6582734 L110,74.6582734 L110,78.6870504 Z" id="Shape"></path>
                            <path d="M14,68.6151079 L22,68.6151079 C23.1044923,68.6151079 24,67.7131577 24,66.6007194 L24,58.5431655 C24,57.4307272 23.1044923,56.528777 22,56.528777 L14,56.528777 C12.8955078,56.528777 12,57.4307272 12,58.5431655 L12,66.6007194 C12,67.7131577 12.8955078,68.6151079 14,68.6151079 Z M16,60.557554 L20,60.557554 L20,64.5863309 L16,64.5863309 L16,60.557554 Z" id="Shape"></path>
                            <path d="M28,68.6151079 L36,68.6151079 C37.1044923,68.6151079 38,67.7131577 38,66.6007194 L38,58.5431655 C38,57.4307272 37.1044923,56.528777 36,56.528777 L28,56.528777 C26.8955078,56.528777 26,57.4307272 26,58.5431655 L26,66.6007194 C26,67.7131577 26.8955078,68.6151079 28,68.6151079 Z M30,60.557554 L34,60.557554 L34,64.5863309 L30,64.5863309 L30,60.557554 Z" id="Shape"></path>
                            <path d="M42,68.6151079 L50,68.6151079 C51.1044923,68.6151079 52,67.7131577 52,66.6007194 L52,58.5431655 C52,57.4307272 51.1044923,56.528777 50,56.528777 L42,56.528777 C40.8955077,56.528777 40,57.4307272 40,58.5431655 L40,66.6007194 C40,67.7131577 40.8955077,68.6151079 42,68.6151079 Z M44,60.557554 L48,60.557554 L48,64.5863309 L44,64.5863309 L44,60.557554 Z" id="Shape"></path>
                            <path d="M56,68.6151079 L64,68.6151079 C65.1044923,68.6151079 66,67.7131577 66,66.6007194 L66,58.5431655 C66,57.4307272 65.1044923,56.528777 64,56.528777 L56,56.528777 C54.8955078,56.528777 54,57.4307272 54,58.5431655 L54,66.6007194 C54,67.7131577 54.8955078,68.6151079 56,68.6151079 Z M58,60.557554 L62,60.557554 L62,64.5863309 L58,64.5863309 L58,60.557554 Z" id="Shape"></path>
                            <path d="M70,68.6151079 L78,68.6151079 C79.1044922,68.6151079 80,67.7131577 80,66.6007194 L80,58.5431655 C80,57.4307272 79.1044922,56.528777 78,56.528777 L70,56.528777 C68.8955078,56.528777 68,57.4307272 68,58.5431655 L68,66.6007194 C68,67.7131577 68.8955078,68.6151079 70,68.6151079 Z M72,60.557554 L76,60.557554 L76,64.5863309 L72,64.5863309 L72,60.557554 Z" id="Shape"></path>
                            <path d="M84,68.6151079 L92,68.6151079 C93.1044923,68.6151079 94,67.7131577 94,66.6007194 L94,58.5431655 C94,57.4307272 93.1044923,56.528777 92,56.528777 L84,56.528777 C82.8955078,56.528777 82,57.4307272 82,58.5431655 L82,66.6007194 C82,67.7131577 82.8955078,68.6151079 84,68.6151079 Z M86,60.557554 L90,60.557554 L90,64.5863309 L86,64.5863309 L86,60.557554 Z" id="Shape"></path>
                            <path d="M98,68.6151079 L106,68.6151079 C107.104492,68.6151079 108,67.7131577 108,66.6007194 L108,58.5431655 C108,57.4307272 107.104492,56.528777 106,56.528777 L98,56.528777 C96.8955078,56.528777 96,57.4307272 96,58.5431655 L96,66.6007194 C96,67.7131577 96.8955078,68.6151079 98,68.6151079 Z M100,60.557554 L104,60.557554 L104,64.5863309 L100,64.5863309 L100,60.557554 Z" id="Shape"></path>
                            <path d="M112,84.7302158 L104,84.7302158 C102.895508,84.7302158 102,85.6321661 102,86.7446043 L102,94.8021583 C102,95.9145965 102.895508,96.8165468 104,96.8165468 L112,96.8165468 C113.104492,96.8165468 114,95.9145965 114,94.8021583 L114,86.7446043 C114,85.6321661 113.104492,84.7302158 112,84.7302158 Z M110,92.7877698 L106,92.7877698 L106,88.7589928 L110,88.7589928 L110,92.7877698 Z" id="Shape"></path>
                        </g>
                    </g>
                </g>
            </g>
        </g>
    </g>
</svg>